HIERARCHY
ROOT Hips
{
  OFFSET -125.086 92.215 135.881
  CHANNELS 6 Xposition Yposition Zposition Zrotation Xrotation Yrotation
  JOINT LeftUpLeg
  {
    OFFSET 8.64259 1.95398 -2.38835
    CHANNELS 3 Zrotation Xrotation Yrotation
    JOINT LeftLeg
    {
      OFFSET 43.7702 0 0
      CHANNELS 3 Zrotation Xrotation Yrotation
      JOINT LeftFoot
      {
        OFFSET 40.6238 0 0
        CHANNELS 3 Zrotation Xrotation Yrotation
        JOINT LeftToeBase
        {
          OFFSET 12.7242 0 0
          CHANNELS 3 Zrotation Xrotation Yrotation
          End Site
          {
            OFFSET 0 0 0
          }
        }
      }
    }
  }
  JOINT RightUpLeg
  {
    OFFSET -8.2249 1.95398 -2.59336
    CHANNELS 3 Zrotation Xrotation Yrotation
    JOINT RightLeg
    {
      OFFSET 43.5653 0 0
      CHANNELS 3 Zrotation Xrotation Yrotation
      JOINT RightFoot
      {
        OFFSET 40.6238 0 0
        CHANNELS 3 Zrotation Xrotation Yrotation
        JOINT RightToeBase
        {
          OFFSET 12.7242 0 0
          CHANNELS 3 Zrotation Xrotation Yrotation
          End Site
          {
            OFFSET 0 0 0
          }
        }
      }
    }
  }
  JOINT Spine
  {
    OFFSET 0.165834 0.87714 6.61349
    CHANNELS 3 Zrotation Xrotation Yrotation
    JOINT Spine1
    {
      OFFSET 7.38963 1.71661e-005 0
      CHANNELS 3 Zrotation Xrotation Yrotation
      JOINT Spine2
      {
        OFFSET 11.9445 1.14441e-005 0
        CHANNELS 3 Zrotation Xrotation Yrotation
        JOINT Spine3
        {
          OFFSET 14.7254 4.19617e-005 0
          CHANNELS 3 Zrotation Xrotation Yrotation
          JOINT Spine4
          {
            OFFSET 10.9679 0 0
            CHANNELS 3 Zrotation Xrotation Yrotation
            JOINT RightShoulder
            {
              OFFSET 2.46616 -1.6653 3.69651
              CHANNELS 3 Zrotation Xrotation Yrotation
              JOINT RightArm
              {
                OFFSET 13.0012 0 0
                CHANNELS 3 Zrotation Xrotation Yrotation
                JOINT RightForeArm
                {
                  OFFSET 28.7848 1.52588e-005 0
                  CHANNELS 3 Zrotation Xrotation Yrotation
                  JOINT RightHand
                  {
                    OFFSET 26.5688 1.52588e-005 0
                    CHANNELS 3 Zrotation Xrotation Yrotation
                    End Site
                    {
                      OFFSET 0 0 0
                    }
                  }
                }
              }
            }
            JOINT LeftShoulder
            {
              OFFSET 2.38034 -1.29275 -3.7523
              CHANNELS 3 Zrotation Xrotation Yrotation
              JOINT LeftArm
              {
                OFFSET 16.3182 6.10352e-005 0
                CHANNELS 3 Zrotation Xrotation Yrotation
                JOINT LeftForeArm
                {
                  OFFSET 27.0901 0 0
                  CHANNELS 3 Zrotation Xrotation Yrotation
                  JOINT LeftHand
                  {
                    OFFSET 24.5451 1.52588e-005 0
                    CHANNELS 3 Zrotation Xrotation Yrotation
                    End Site
                    {
                      OFFSET 0 0 0
                    }
                  }
                }
              }
            }
            JOINT Neck
            {
              OFFSET 5.0226 -0.0266342 0
              CHANNELS 3 Zrotation Xrotation Yrotation
              JOINT Head
              {
                OFFSET 6.69363 2.86102e-005 0
                CHANNELS 3 Zrotation Xrotation Yrotation
                End Site
                {
                  OFFSET 0 0 0
                }
              }
            }
          }
        }
      }
    }
  }
}
MOTION
Frames:	7
Frame Time:	0.0416667
-264.886 70.3332 -268.4 93.0638 6.70494 92.9944 168.39 54.8361 93.3659 -60.0573 -67.8247 40.9622 0.461737 -5.36009 -139.438 -42.972 -10.5618 20.0325 130.364 0.169755 95.7927 -93.4707 15.9635 -3.74629 153.078 -24.5376 24.593 31.9727 -20.0016 152.011 -4.21834 5.29328 -89.7157 16.4082 -8.17681 1.94287 4.76109 -8.08332 2.30302 -17.9824 -8.38005 -0.621938 2.03027 -8.38003 -0.621942 131.946 -28.2077 -23.2109 38.9233 -38.3189 -24.9189 -107.97 -57.504 -107.067 -37.082 18.6729 -58.2057 -41.9082 -45.1381 152.1 9.66986 41.3182 12.3002 42.6484 -0.147487 -110.091 37.6561 -19.9895 -55.8118 82.5666 4.74664 12.6785 42.9793 -20.628 -33.4107 
-265.471 69.977 -268.925 92.8364 7.02556 93.2099 167.862 54.95 93.7645 -59.0642 -67.8071 43.5003 2.19265 -6.62017 -141.021 -42.5469 -9.65965 19.1148 130.096 -0.193949 96.0911 -93.1344 17.2079 -3.76515 153.565 -23.1398 25.5816 32.4397 -19.2672 152.828 -4.25789 5.27734 -89.744 16.4409 -8.26848 1.90483 4.79447 -8.17661 2.26915 -17.9536 -8.45594 -0.686332 2.05902 -8.45594 -0.686341 131.877 -28.1094 -23.2512 38.947 -38.3555 -24.6958 -101.488 -58.3233 -101.703 -36.9936 19.2888 -59.8447 -41.8681 -45.1636 152.141 10.1128 38.725 11.3332 43.2033 2.11711 -111.425 38.1888 -20.6945 -56.7612 82.5875 4.72365 12.6212 42.9476 -20.5799 -33.4394 
-267.171 68.9518 -270.443 92.184 7.9259 93.8307 167.063 54.7709 93.2979 -51.5331 -67.3765 55.349 6.31664 -11.2462 -145.544 -40.9075 -6.77589 16.1371 129.392 -1.20641 96.9119 -92.2331 20.6554 -3.80404 154.798 -18.9886 28.3863 33.7268 -17.0502 155.057 -4.36953 5.23223 -89.8244 16.5332 -8.52778 1.79649 4.88864 -8.44042 2.17261 -17.8727 -8.67044 -0.869244 2.13991 -8.67045 -0.869245 131.682 -27.8317 -23.3653 38.9934 -38.482 -24.0346 -82.4405 -58.6907 -85.822 -35.9647 20.6847 -64.746 -41.753 -45.2372 152.26 10.8234 31.7729 9.08217 45.3243 8.08427 -115.204 39.7417 -22.6881 -59.2313 82.6445 4.65855 12.4581 42.8614 -20.4433 -33.5181 
-269.921 67.3305 -272.86 91.1553 9.2841 94.8136 169.719 51.5193 85.6814 -26.1681 -61.5145 86.9122 9.1615 -21.8425 -151.692 -35.8624 -1.54603 10.282 128.485 -2.66894 98.1077 -91.0551 25.6176 -3.8026 156.219 -11.935 32.8119 35.5806 -13.3085 158.215 -4.53985 5.16307 -89.9495 16.6743 -8.92455 1.62769 5.03271 -8.84419 2.02186 -17.7495 -8.9977 -1.15217 2.26318 -8.9977 -1.15218 131.38 -27.4011 -23.5413 39.0159 -38.7392 -22.9396 -58.0844 -54.5201 -66.0717 -32.8212 21.646 -72.1773 -41.5721 -45.3538 152.445 10.8627 22.1452 6.49747 50.0084 15.8501 -121.416 42.3578 -25.7784 -62.3655 82.7281 4.55778 12.2041 42.7348 -20.2305 -33.6344 
-273.659 65.2074 -276.037 89.8043 10.9509 96.112 172.919 43.3332 77.5029 -3.39413 -46.0469 114.211 17.6693 -38.5635 -150.607 -20.4452 3.75633 1.66051 127.688 -4.27875 99.4358 -90.096 30.8447 -3.62766 156.698 -1.29487 39.1114 37.2821 -9.33913 161.748 -4.75235 5.0757 -90.1112 16.8521 -9.42268 1.40843 5.21442 -9.35146 1.82534 -17.5947 -9.40633 -1.51463 2.41799 -9.40633 -1.51464 130.993 -26.8444 -23.7667 38.9675 -39.1817 -21.4002 -39.8517 -46.0803 -52.9598 -28.0654 21.1828 -80.043 -41.3342 -45.509 152.686 9.78132 11.5109 3.99882 58.1353 23.1957 -130.451 46.2326 -29.7271 -65.1186 82.8285 4.42842 11.874 42.5818 -19.9538 -33.7768 
-278.285 62.7005 -279.679 88.19 12.7703 97.6761 166.962 41.3797 86.1849 6.37233 -43.9836 127.21 66.6506 -53.554 -118.566 10.925 1.84237 0.0466227 127.371 -5.47064 100.4 -90.1513 34.4562 -3.05606 152.462 15.3606 49.8815 32.5217 -23.6179 165.277 -4.9902 4.97573 -90.3013 17.0543 -9.98469 1.14825 5.42116 -9.92436 1.5909 -17.4192 -9.86345 -1.93613 2.59344 -9.86345 -1.93613 130.541 -26.1867 -24.0295 38.8167 -39.869 -19.3866 -29.022 -36.8345 -47.1664 -23.2376 19.5355 -86.6218 -41.0469 -45.6992 152.975 7.51406 0.986964 1.59298 69.9269 28.0757 -142.574 51.6783 -34.2189 -66.4782 82.9368 4.2777 11.4826 42.415 -19.6239 -33.9353 
-283.454 59.6974 -283.133 86.3808 14.5941 99.4469 160.824 35.6506 96.447 8.7932 -44.4889 131.192 120.261 -34.9734 -68.9203 44.6198 -0.841039 15.8834 127.833 -4.38223 99.9387 -91.7068 36.3832 -1.93804 112.483 39.4555 86.6546 48.5099 15.3402 172.362 -5.23671 4.86884 -90.5115 17.2685 -10.5741 0.856348 5.64044 -10.526 1.32613 -17.2337 -10.337 -2.39667 2.77895 -10.3371 -2.39668 130.041 -25.4521 -24.3186 38.559 -40.8606 -16.8455 -22.6474 -28.4987 -45.6772 -19.1452 17.4223 -91.6054 -40.7165 -45.9218 153.303 4.1244 -8.86517 -0.850764 84.2797 28.8149 -157.014 59.1316 -38.8027 -65.5166 83.0447 4.11383 11.0433 42.2467 -19.2512 -34.1012 
